<?xml version="1.0" encoding="utf-8"?>
<!-- Generator: Adobe Illustrator 19.2.1, SVG Export Plug-In . SVG Version: 6.00 Build 0)  -->
<svg version="1.1" xmlns="http://www.w3.org/2000/svg" xmlns:xlink="http://www.w3.org/1999/xlink" x="0px" y="0px"
	 viewBox="0 0 800 800" style="enable-background:new 0 0 800 800;" xml:space="preserve">
<style type="text/css">
	.st0{fill:#616161;}
	.st1{fill:#383838;}
	.st2{fill:#696A6F;}
	.st3{fill:#A31717;}
	.st4{fill:#871717;}
	.st5{fill:#F5B591;stroke:#F5B591;stroke-width:0.6253;stroke-miterlimit:10;}
	.st6{fill:#F7C7AC;}
	.st7{fill:#F5B591;stroke:#F5B591;stroke-width:0.6218;stroke-miterlimit:10;}
	.st8{fill:#C0C2C2;}
	.st9{fill:#D2D4D4;}
	.st10{fill:#E8E9E9;}
	.st11{fill:#A10E2F;}
	.st12{fill:#F5B591;stroke:#F5B591;stroke-width:0.4952;stroke-miterlimit:10;}
	.st13{fill:#E83E33;}
</style>
<g id="Background">
	<g id="Capa_3">
	</g>
</g>
<g id="Objects">
	<g>
		<g>
			<path class="st0" d="M278.7,721.1c8.8-18.5,8.3-38.7,0.7-57l-5.9,13c0,0-6,54.8-38.2,71.7l1.2,7.2
				C251.6,744.9,269.3,738.1,278.7,721.1z"/>
			<path class="st1" d="M286.9,650.9l-7.5,13.2c7.6,18.3,4.9,34.7-3.9,53.3c-9.4,17.1-23.9,27.5-38.9,38.6l1.9,11.5
				c0,0,80.2-44.7,85.9-99.3L286.9,650.9z"/>
		</g>
		<g>
			<path class="st0" d="M658.2,680.3c-7.3-19.1-22.3-32.8-40.7-39.9l5.4,13.2c0,0,28.8,22.4,25.5,77.1l6,4.1
				C656.6,716.4,664.1,698.9,658.2,680.3z"/>
			<path class="st1" d="M613.1,625.9l4.4,14.5c18.4,7.1,28.5,20.5,35.8,39.6c5.8,18.6,3.4,36.3,1,54.8l9.6,6.5
				c0,0,23.1-88.9-12.4-130.7L613.1,625.9z"/>
		</g>
		<path class="st2" d="M247,79.7l-5.9,12.5c0,0-13.4-7.5-8.1-13.6C238.3,72.6,240.9,74.4,247,79.7z"/>
		<g>
			<g>
				<g>
					<path class="st3" d="M418.1,567.4c-29.3-25.9-57.4-73.1-60.8-110.3c-1.2-14.3-0.5-36.1-2.6-50c-6.5,7.6-25.8,21.5-31.5,33.3
						c0,0,8.5,214.1,301.8,214.1v-7C558.7,629.9,430.5,578.7,418.1,567.4z"/>
					<path class="st4" d="M460.4,409.9c0,0-68.4-57.4-118.9,1.7c2.2,13.9,3.7,27.9,4.9,42.2c3.4,37.2,16.3,77.1,42.5,106.2
						c84.1,93.3,169.8,69.9,236,87.5v-26.8C624.9,620.7,408.6,605.1,460.4,409.9z"/>
				</g>
				<g>
					<path class="st5" d="M109.6,188.8c0.4-0.4,0.2-0.6-0.1-0.8l-0.8,0.7c0,0,10.5,15.8,23.4,32.9l0,0l0,0c0.2,0.3,0.5,0.6,0.7,0.9
						c-0.1-7.6,1.6-15.1,6.1-21.2C127.6,202.3,114.1,200.1,109.6,188.8z"/>
					<path class="st6" d="M174.9,178.6l-23-9.9l-5-5.9l-5-2.2L109.5,188c0.3,0.2,0.4,0.5,0.1,0.8c4.5,11.3,18,13.5,29.3,12.4
						c-4.4,6.1-6.1,13.6-6.1,21.2c3.3,4.4,6.8,8.8,10.3,13l26.3-13.4l-3.8-7.6L174.9,178.6z"/>
					<path class="st5" d="M151.7,168.4c-0.1-0.3-1-0.3-0.8,0.1c1.3,3.6,2.3,7.2,2.9,10.9c0.7,4.2,0.2,8.1,0.1,12.2
						c0,0.1,0.2,0.1,0.3,0C156.8,184.7,154.4,175,151.7,168.4z"/>
					<path class="st5" d="M151.5,191.9c-1,0.4-1.9,0.9-2.8,1.4c-0.6-6.8-6-14-10.2-18.9c-0.1-0.1-0.5-0.1-0.4,0.1
						c4,6.3,8.3,11.6,10.3,18.9c-3.8,2.1-7.4,4.8-11.1,7c-2.7,1.5-5.6,2.7-8.6,3c-3.6,0.4-7.3-2.2-10.6-3.4c-0.1,0-0.2,0-0.1,0.1
						c5.3,2.9,10.1,4.8,16,2.8c6.7-2.3,11.9-7.6,18.5-10.4C153.1,192.3,152,191.7,151.5,191.9z"/>
					<path class="st5" d="M141.3,197.3c-3.2-5.9-7.6-12.9-13.6-16.1c-0.2-0.1-0.7,0.1-0.4,0.3c2.9,2.2,5.5,4.4,7.7,7.4
						c2.1,2.8,3.7,6,6.2,8.5C141.1,197.4,141.4,197.4,141.3,197.3z"/>
					<path class="st5" d="M132.7,200.7c-2.4-3.4-6.1-7.9-10.1-9.4c-0.2-0.1-0.8,0.1-0.5,0.3c2.2,1.4,4.1,2.9,5.9,4.8
						c1.4,1.5,2.7,3.2,4.5,4.3C132.6,200.8,132.8,200.8,132.7,200.7z"/>
					<path class="st5" d="M161,190.1c-2.2,0.5-4.3,0.9-6.5,1.3c-0.2,0-0.1,0.2,0,0.2c2.2,0,4.5-0.6,6.6-1.3
						C161.2,190.2,161.1,190.1,161,190.1z"/>
					<path class="st5" d="M163,194.9c-0.4-0.7-1-1.2-1.6-1.8c-0.6-0.7-1.1-1.4-1.7-2.1c-0.1-0.1-0.6-0.1-0.5,0.1
						c0.6,1.5,1.8,3.2,3.2,4.1C162.6,195.2,163.1,195.2,163,194.9z"/>
				</g>
				<g>
					<path class="st7" d="M589.8,277.9l-36-20.6l-13.1,21.5c0,0,3,4.9,5.9,9.8C562,288.8,577,285.7,589.8,277.9z"/>
					<path class="st6" d="M546.5,288.6c1.4,2.5,2.9,4.9,3.8,6.8c2.8,5.4,3.8,29.8,3.8,29.8l14,11.1l22.8-7.1l-0.3-10.1
						c0,0,11.3-3,13.2-7.4c1.9-4.4,5.5-22.6,5.5-22.6l-19.4-11.1C577,285.7,562,288.8,546.5,288.6z"/>
					<path class="st7" d="M574.2,327.2c-2.1,0.7-4.2,1.2-6.4,1.5c-2.1-8.1-3.1-17.1-7.2-24.4c-0.1-0.2-0.6-0.2-0.6,0.1
						c1.7,8.4,4,16.8,6.1,25.1c0.1,0.4,0.8,0.6,1.1,0.5c2.6-0.4,5.4-1,7.8-2.2C623.5,303.4,574.6,327.1,574.2,327.2z"/>
					<path class="st7" d="M580.3,324c-0.7-3-1.9-6-2.8-9c-0.8-2.9-1.3-5.8-2.3-8.6c-0.1-0.2-0.6-0.2-0.6,0
						c0.5,5.7,1.9,12.6,4.6,17.7C579.5,324.4,580.4,324.5,580.3,324z"/>
					<path class="st7" d="M590,315.8c-0.3-1.5-0.5-3.1-0.7-4.6c-0.2-2.2-0.6-4.2-1-6.3c0-0.1-0.2-0.1-0.2,0c0.1,0.8-0.1,1.8-0.1,2.5
						c0,1.5,0.1,2.9,0.1,4.4c0.1,2.2,0.1,5.6,1.7,7.3c0.1,0.2,0.7,0.3,0.7-0.1C590.6,317.9,590.2,316.9,590,315.8z"/>
				</g>
				<g>
					<path class="st8" d="M261.1,296.3c-27.4,13.3-63.5,4.2-80.8-18.7c-5.3-6.9-7.3-14.9-11.3-22.3c-4.3-8.2-9.4-16.5-13.3-25
						l-9.3,4.3c0,0,54.3,132.6,169.8,74.9l8.3-94.6l-9.8-1.7C313.4,246.5,296.5,279.6,261.1,296.3z"/>
					<path class="st9" d="M253.5,260c-35.6,6.1-83.5-36.4-83.5-36.4l-14.3,6.6c3.9,8.5,9,16.8,13.3,25c4,7.4,6,15.4,11.3,22.3
						c17.4,23,53.4,32,80.8,18.7c35.4-16.7,52.3-49.8,53.5-83.2l-5.4-1C309.2,212.2,289.1,253.9,253.5,260z"/>
					<path class="st10" d="M170,212.7l10.5,10.5l-28.9,38.5l-15.7-31.6C135.9,230.1,151,219.4,170,212.7z"/>
					<path class="st11" d="M151.6,236.9c0,1.2-1.2,2.2-2.6,2.2c-1.5,0-2.6-1-2.6-2.3c0-1.2,1.2-2.2,2.6-2.2
						C150.4,234.6,151.6,235.6,151.6,236.9z"/>
				</g>
				<g>
					<path class="st6" d="M316.5,228.2C316.5,228.3,316.5,228.2,316.5,228.2C316.5,228.2,316.5,228.3,316.5,228.2z"/>
					<path class="st6" d="M315.8,228.4c0.3,0.5,0.4-0.5,0.7-0.1C316.2,227.8,316.1,228.8,315.8,228.4z"/>
					<path class="st6" d="M316.5,228.2c0.1,0.1,0.1-0.1,0.1,0C316.6,228.1,316.6,228.3,316.5,228.2z"/>
					<path class="st6" d="M316.7,228.2c0.1,0.1,0.1-0.2,0.2,0C316.8,228,316.8,228.3,316.7,228.2z"/>
					<path class="st6" d="M316.6,228.2C316.7,228.3,316.7,228.2,316.6,228.2C316.7,228.1,316.7,228.3,316.6,228.2z"/>
					<path class="st6" d="M315.4,228.4c0.2,0.2,0.2-0.3,0.4-0.1C315.6,228.1,315.6,228.7,315.4,228.4z"/>
					<path class="st6" d="M314.9,228.5C314.9,228.6,314.9,228.5,314.9,228.5C314.9,228.5,314.9,228.6,314.9,228.5z"/>
					<path class="st6" d="M314.6,228.6c0.1,0.2,0.1-0.2,0.3,0C314.7,228.2,314.6,228.6,314.6,228.6z"/>
					<path class="st6" d="M315,228.5C315.1,228.5,315.1,228.4,315,228.5C315.1,228.4,315.1,228.5,315,228.5z"/>
					<path class="st6" d="M315.1,228.5c0.2,0.2,0.2-0.3,0.3-0.1C315.3,228.2,315.2,228.7,315.1,228.5z"/>
					<path class="st6" d="M314.9,228.5C315,228.6,315,228.4,314.9,228.5C315,228.4,315,228.6,314.9,228.5z"/>
					<path class="st6" d="M316.9,228.2c0.1,0.1,0.1-0.1,0.1,0C317,228,317,228.3,316.9,228.2z"/>
					<path class="st6" d="M317.7,228C317.8,228.1,317.8,228.1,317.7,228L317.7,228z"/>
					<path class="st6" d="M317.7,228C317.7,228.1,317.7,228,317.7,228C317.7,228,317.7,228.1,317.7,228z"/>
					<path class="st6" d="M342.6,147.9c2.2-59.9-2.6-71.7-2.6-71.7s-56.2-11.9-81.1-5.1c-8,16.5-15.9,33-23.5,50.1
						c-3.1,6.6-5.6,13.9-3.7,21.9c1.3,7.5,5.9,15.1,13.7,13.4c1.1,3.7,8.4,32.8,8.4,32.8c0.9,1.9,1.9,3.7,3.1,5.5
						c7.8,10.1,20.5,9.8,31,7c14.5-3.7,25.8,11.1,37.8,24.9c1,1,1.3-1.8,2.3-0.4l30.2-5.3C358.2,220.9,341.6,175,342.6,147.9z"/>
					<path class="st12" d="M325.7,226.6c-12-13.8-23.3-28.5-37.8-24.9c-10.6,2.8-23.2,3.1-31-7c-1.2-1.8-2.2-3.6-3.1-5.5
						c-0.7-3.9-7.3-29-8.4-32.8c-7.8,1.8-12.4-5.9-13.7-13.4c-1.8-8.1,0.7-15.3,3.7-21.9c7.5-17,15.5-33.6,23.5-50.1
						c-5.3,1.4-9.1,3.7-10.8,7.2l-35.1,69.1l25.2,18.5l18.5,56.4c0,0,45.6-24.2,57.9,6.3l6-1.1l7.4-1.3
						C327,224.8,326.7,227.6,325.7,226.6z"/>
					<path class="st6" d="M317.2,228.1c0.2,0.2,0.2-0.2,0.3-0.1C317.4,227.9,317.3,228.4,317.2,228.1z"/>
				</g>
				<g>
					<path class="st9" d="M363,207.1c0,0,70.9,56.4,97.4,202.8c0,0-32.2,41-137.2,30.5c0,0-21.8-81-16.7-213.2
						C306.5,227.2,353.5,227,363,207.1z"/>
					<polygon class="st8" points="361.7,199.6 317,216.6 337.6,248 372.7,215.6 					"/>
				</g>
				<g>
					<g>
						<path class="st8" d="M371,217.1c-5.6,8.7-9.7,18.2-11.5,27.9c-0.9,4.9-1.1,10.5-0.3,16.1c15.4-13.6,36.6-25.7,55.8-37.4
							c28.3-17.6,83-14.7,105,5c6.8,5.9,10,13.4,15.4,20.1c5.8,7.4,12.4,14.7,17.9,22.4l9.6-5.8C562.8,265.4,480.9,146.1,371,217.1z
							"/>
						<path class="st9" d="M535.4,248.8c-5.4-6.7-8.6-14.2-15.4-20.1c-22-19.7-77-28.9-105.3-11.3c-19.3,11.7-40.4,25.6-55.8,40.9
							c0.5,6.4,2.2,12.9,5.3,18.4c2.4,4.2,5.1,7.9,8.3,11.1c20.7-10.2,48.4-23.1,69.5-29.7c38.3-11.9,96.3,21.9,96.3,21.9l14.9-8.9
							C547.8,263.5,541.1,256.2,535.4,248.8z"/>
						<path class="st10" d="M539.8,290.8l-12.9-8.6l26.6-42.7l21.4,28.5C574.9,268,559.8,281.1,539.8,290.8z"/>
						<path class="st11" d="M556.8,264c-0.2-1.2,1-2.4,2.6-2.6c1.6-0.2,3,0.6,3.2,1.8c0.2,1.2-1,2.4-2.6,2.6
							C558.4,266,556.9,265.2,556.8,264z"/>
					</g>
				</g>
				<path class="st4" d="M238.5,525c-43.6,69,18.5,103.2,43.5,143.1l12.7-13.5c0,0-56.4-82.4,0-104.9
					c52.3-20.8,175.1-37,169.5-119.2C384.9,435.2,315.1,424.6,238.5,525z"/>
				<path class="st3" d="M365.2,422.2c0,0-253.6,73.7-91.7,254.9l8.4-9c-25-39.9-74.9-70.4-37.7-137.2
					c76-103.3,140.6-95.6,219.9-100.3c-0.4-6.4-1.7-13.3-3.8-20.6C460.4,409.9,455.1,392.9,365.2,422.2z"/>
				<polygon class="st8" points="312,216.3 305.7,251.4 298.8,228.6 304,216.3 				"/>
				<path class="st13" d="M311,222.1l-4.1,22.6l5.1,8.7v11.7c0,0-7,111.6,109.3,99.3l19.3-30.3l-36.2-15c0,0-22.7,16.6-52.3-3.9
					c-29.7-20.6-30.9-63.9-30.9-63.9l9.3-14.2l-11-18.1L311,222.1z"/>
				
					<rect x="315.3" y="297.5" transform="matrix(0.759 -0.6511 0.6511 0.759 -115.2878 287.6939)" class="st8" width="31.3" height="4"/>
			</g>
			<path class="st12" d="M269.1,126.9c-3.8,0.9-7.4,2.5-11,4.1c0.8-0.6,1.5-1.3,2.2-2c0.3-0.3,0.2-0.6-0.3-0.5
				c-2.5,0.9-4.7,2.1-7,3.3c-0.8,0.4-1.5,0.8-2.3,1.1c0.6-0.3,1.2-1.2,1.6-1.7c1.1-1.2,2.1-2.5,3.1-3.8c0.2-0.2,0-0.4-0.3-0.3
				c-4.6,1.5-8.9,4.3-12.1,8c-0.2,0.3,0.2,0.3,0.4,0.1c2.5-2.6,5.3-4.8,8.5-6.4c0.8-0.4,1.6-0.7,2.4-1c0,0-1.2,1.6-1.2,1.6
				c-1.1,1.3-2.3,2.6-3.5,3.9c-0.2,0.2,0,0.5,0.3,0.4c2-0.7,3.9-1.8,5.8-2.7c1-0.5,2.7-1.1,3.3-1.7c-1.2,1.1-2.3,2.1-3.7,2.9
				c-0.4,0.2-0.3,0.8,0.2,0.6c4.4-2,8.9-3.7,13.5-5.3C269.4,127.3,269.6,126.8,269.1,126.9z"/>
			<path class="st12" d="M252.3,112.3c0,0-9.2,11.9-7.2,13.4c2,1.5,11.5,0.2,11.5,0.2S263.7,107.8,252.3,112.3z"/>
			<path class="st12" d="M242.9,180c0,0,17.4-6.9,27.6-22.7C270.6,157.3,263.9,186.2,242.9,180z"/>
		</g>
		<path class="st1" d="M241.1,92.2c0,0-12.9-11.5-2.6-14.7c6.1-1.9,12,21.8,45.1,27.4c33.1,5.6,47.3-9.4,47.3-9.4
			s-27.8,16.2-47.4,1.1c0,0,17.8,5.5,31,3c13.2-2.5,26.5,9.2,19.7,35.6c-6.8,26.4-7.1,35.4,3.8,50.1c10.9,14.7,20.1,10.7,20.1,10.7
			l0.7-8.1c0,0-8.1,4.6-10.3-16.4s-2.6-68,0-78.9c2.6-10.9-3.4-32.3-83.8-36.1c0,0-18.8-3-33.7,15.8
			C221.7,84.2,229.5,86.9,241.1,92.2z"/>
	</g>
</g>
</svg>
